<svg version="1.2" xmlns="http://www.w3.org/2000/svg" viewBox="0 0 1374 1200" width="1374" height="1200"><defs><clipPath clipPathUnits="userSpaceOnUse" id="cp1"><path d="m848.76 1010.18l-125.14-77.73 141.03-80.65 125.15 77.72z"/></clipPath><clipPath clipPathUnits="userSpaceOnUse" id="cp2"><path d="m901.49 544.41l0.61-80.42 57.23 15.94-0.61 80.41z"/></clipPath><clipPath clipPathUnits="userSpaceOnUse" id="cp3"><path d="m679.04 407.18l0.1-68.89 93.98 53.32-0.1 68.89z"/></clipPath><clipPath clipPathUnits="userSpaceOnUse" id="cp4"><path d="m1059.87 673.41l2.41-105.81 292.78 165.67-2.41 105.82z"/></clipPath><clipPath clipPathUnits="userSpaceOnUse" id="cp5"><path d="m295.07 112.53l2.41-105.81 292.78 165.67-2.41 105.82z"/></clipPath><clipPath clipPathUnits="userSpaceOnUse" id="cp6"><path d="m773.33 278.11l2.42-105.81 292.78 165.67-2.41 105.81z"/></clipPath></defs><style>tspan{white-space:pre}.a{opacity:.6;fill:#dae1e5}.b{fill:#77b7ff}.c{fill:#bae0f6}.d{fill:#008ff9}.e{mix-blend-mode:soft-light;fill:#d8efff}.f{fill:#fff}.g{opacity:.5;mix-blend-mode:soft-light;fill:#d8efff}.h{fill:#a6bdda}.i{fill:#a6c8db}.j{fill:#bae0ff}.k{fill:#d8efff}.l{fill:#bad4f5}.m{fill:#eaa306}.n{fill:#ffca00}.o{fill:#ffb500}.p{fill:#78b8ff}</style><path class="a" d="m1131.8 1013.8l-266.4 153.6c-17 9.8-37.9 9.8-55 0l-600.9-346.9c-16.9-9.8-16.9-34.1 0-43.9l269.2-155.4c16.1-9.3 35.8-9.3 51.9 0l510.3 294.4 72.4 41.8 18.5 10.7c17.6 10.1 17.6 35.5 0 45.7z"/><path class="b" d="m1123.7 960.8l-249.3 143.9c-26.8 15.4-59.7 15.4-86.4 0l-149.3-86.2-298.2-172.2-140.8-81.3c-13.6-7.8-15.3-25.9-5.2-36.3 1.5-1.5 3.2-2.9 5.2-4l291.1-168.1c4.4-2.5 9.9-2.5 14.3 0l618.6 357c3.3 2 6.1 4.4 8.2 7.2 9.4 12.4 6.6 31.5-8.2 40z"/><path class="b" d="m1137 903.4l0.3 34.3-44.1 11.9c0 0 5-49 6-48.8 1 0.2 37.8 2.6 37.8 2.6z"/><path class="b" d="m189.7 705.8l-1.7 41.4 97.1-1.5z"/><path class="c" d="m1123.8 927.9l-266.3 153.7c-17 9.8-38 9.8-55 0l-600.9-347c-16.9-9.7-16.9-34.1 0-43.8l269.2-155.5c16-9.3 35.8-9.3 51.9 0l510.3 294.5 72.4 41.7 18.5 10.7c17.5 10.2 17.5 35.5-0.1 45.7z"/><path class="d" d="m245.5 692.2l60.9-36.5 178.3-106.6c7.8-4.7 17.5-4.7 25.4-0.1l581.2 341.5c10.6 6.2 10.6 21.5 0 27.7l-234.6 136.5c-16.4 9.5-36.5 9.6-52.9 0.2l-557.9-319.8c-16.5-9.4-16.7-33.1-0.4-42.9z"/><path class="c" d="m324.5 668.6l-21.7-15.2 116.4-69.2 17.2 10.6c5.7 3.4 5.6 11.7-0.1 15l-102.4 59.2c-3 1.7-6.6 1.5-9.4-0.4z"/><path class="e" d="m333.2 643.5l52.9-30.1c1.5-0.9 3.5-0.9 5 0l0.5 0.3c3.3 1.9 3.3 6.5 0.1 8.4l-51.8 30.9c-1.6 1-3.7 0.9-5.3-0.1l-1.7-1.1c-3.1-2-2.9-6.5 0.3-8.3z"/><path class="e" d="m407 612c-3.6 0-6.5-2-6.5-4.5 0-2.5 2.9-4.5 6.5-4.5 3.5 0 6.4 2 6.4 4.5 0 2.5-2.9 4.5-6.4 4.5z"/><g style="opacity:.5"><g clip-path="url(#cp1)"><path class="f" d="m850.8 925.6c-2.7 1.5-3 4-0.6 5.4 20.7 12.9 27.9 30.8 22.2 48.2-0.9 2.8 3.1 4.9 7.6 4.1 1.1-0.2 2.2-0.6 3.1-1.1 1-0.6 1.7-1.4 2-2.2 6.4-19.7-1.7-39.9-25-54.5-2-1.3-5.7-1.5-8.4-0.3q-0.5 0.2-0.9 0.4z"/><path class="f" d="m846 942.2c-1.7 1-2.2 2.5-1 3.6 11 11 13 24.4 6.7 36.9-0.9 1.9 1.2 3.6 4.4 3.5 1.3-0.1 2.5-0.4 3.4-0.9 0.7-0.4 1.2-0.9 1.5-1.4 7-14.1 4.8-29.1-7.6-41.4-1.3-1.3-4.2-1.6-6.6-0.7q-0.4 0.2-0.8 0.4z"/><path class="f" d="m838.2 916.7c-10.8 6.2-12 16-2.7 21.8 1.8 1.1 4.9 1 6.9-0.1 2-1.2 2.2-3 0.5-4.1-5.9-3.6-5.1-9.7 1.7-13.6 6.7-3.9 17-4.1 22.8-0.4 10.9 6.7 18.9 14.6 23.9 23.6 0.8 1.5 3.5 2.1 6.1 1.5q1-0.2 1.7-0.7c1.4-0.8 2.1-2 1.4-3.1-5.3-9.7-14-18.3-25.7-25.6-9.4-5.8-25.8-5.5-36.6 0.7z"/><path class="f" d="m896.8 950.5c-1.2 0.8-1.9 1.8-1.6 2.8 2.1 7 2.3 14.1 0.8 21.1-0.5 2.3 3.4 3.8 6.9 2.6q0.6-0.2 1.1-0.5c0.9-0.5 1.5-1.2 1.7-1.9 1.6-7.6 1.3-15.3-0.9-22.9-0.4-1.5-3-2.4-5.6-2-0.9 0.2-1.7 0.5-2.4 0.8z"/><path class="f" d="m880.2 909.2c-2 1.1-2.2 2.9-0.5 4 23.5 14.6 34.5 34 33.5 53.7-0.2 2.5 4.5 3.6 7.7 2q0.2-0.1 0.3-0.2c1-0.5 1.6-1.3 1.7-2.1 1.1-21.2-10.6-41.9-35.8-57.6-1.8-1.1-4.9-1-6.9 0.2z"/><path class="f" d="m827.6 910.2c-17.6 10-19.5 25.9-4.3 35.3 3.2 2 6 4.2 8.3 6.6 1.2 1.4 4.2 1.7 6.6 0.8q0.4-0.2 0.8-0.4c1.7-1 2.2-2.4 1.2-3.6-2.7-2.7-5.8-5.3-9.5-7.6-11.8-7.3-10.3-19.5 3.3-27.2 6-3.4 13.7-5.6 21.7-6 1.2 0 2.4-0.4 3.3-0.9 1-0.6 1.6-1.4 1.6-2.2 0.1-1.6-2.1-2.8-4.7-2.6-10.4 0.5-20.5 3.3-28.3 7.8z"/><path class="f" d="m840.8 967.6c-1.1 0.6-1.7 1.4-1.7 2.3-0.1 4.3-1.4 8.6-3.7 12.6-1 1.8 0.6 3.4 3.5 3.6 1.5 0.1 3.1-0.2 4.2-0.9 0.6-0.3 1.1-0.8 1.4-1.3 2.7-4.7 4.2-9.6 4.3-14.5 0-1.6-2.1-2.8-4.8-2.6-1.3 0-2.4 0.4-3.2 0.8z"/><path class="f" d="m917.7 924.1c-1.7 0.9-2.1 2.4-1.2 3.6 7.1 9 11.2 18.8 12.4 28.7 0.3 2.4 5.1 3.1 7.9 1.5q0.4-0.2 0.7-0.4c0.8-0.6 1.2-1.4 1.1-2.1-1.4-10.7-5.7-21.1-13.3-30.7-1.2-1.6-4.6-2-7.2-0.8q-0.2 0.1-0.4 0.2z"/><path class="f" d="m817 903.6c-12.2 6.9-19.5 16.4-20.1 25.9-0.1 1.6 2 2.8 4.7 2.7 1.3 0 2.4-0.4 3.3-0.9 1-0.5 1.7-1.3 1.7-2.1 0.5-8 6.6-15.9 16.8-21.7 20.2-11.6 51-12.1 68.5-1.3 5.2 3.2 9.9 6.7 14 10.3 1.5 1.3 4.5 1.5 6.7 0.5l0.6-0.3c1.8-1 2.2-2.6 1-3.7-4.4-3.9-9.5-7.6-14.9-11-21.1-13-58-12.3-82.3 1.6z"/><path class="f" d="m801.1 937.9c-1.5 0.9-2.1 2.3-1.4 3.4 2.4 4.2 6.2 8 11.3 11.2 12.1 7.5 14.8 18.4 8.8 28.3-0.9 1.5 0.3 3.1 2.8 3.5 1.7 0.3 3.6-0.1 5-0.8 0.6-0.4 1-0.8 1.3-1.3 7.2-11.8 3.9-24.9-10.5-33.9-4.4-2.7-7.6-5.9-9.6-9.5-0.9-1.6-4-2.3-6.8-1.3q-0.5 0.2-0.9 0.4z"/><path class="f" d="m864.9 884.1c-0.8 0.5-1.3 1.1-1.6 1.8-0.4 1.5 1.3 2.9 3.9 3.1 14.6 0.7 27.3 4.3 37 10.2 16.9 10.5 28.8 23.1 35.5 37.3 0.7 1.5 3.4 2.2 6 1.7q1.1-0.3 1.9-0.7c1.3-0.8 2-2 1.5-3.1-7.1-15-19.7-28.3-37.6-39.4-11.1-6.9-25.8-10.9-42.5-11.8-1.5-0.1-3 0.3-4.1 0.9z"/><path class="f" d="m806.4 897c-31.1 17.8-34.5 45.8-7.6 62.5 7.7 4.8 9.7 11.7 6.3 18.1-0.7 1.3 0.2 2.6 2.1 3.2 1.9 0.5 4.2 0.2 5.7-0.7 0.7-0.4 1.2-0.8 1.5-1.4 4.3-8.3 1.7-17.2-8.3-23.4-23.3-14.5-20.4-38.9 6.7-54.4 8.7-4.9 19.2-8.6 30.5-10.5 0.8-0.1 1.6-0.4 2.2-0.8 1.3-0.7 2-1.8 1.6-2.8-0.4-1.5-3-2.4-5.6-1.9-13 2.2-25.1 6.4-35.1 12.1z"/><path class="f" d="m925.9 894.2c-1.9 1.1-2.2 2.8-0.8 3.9 8.6 6.3 15.6 13 21.2 20.2 1.5 2 5.7 1.9 8.1 0.6 0.9-0.6 1.6-1.4 1.6-2.3-5.9-7.9-13.6-15.5-23-22.4-1.6-1.1-4.7-1.2-6.8-0.1q-0.2 0-0.3 0.1z"/><path class="f" d="m806.2 885.2c-1.8 1-2.2 2.6-0.9 3.8 1.4 1.2 4.4 1.4 6.7 0.5 30.5-13.3 70.4-13.7 97.2-1.1 1.9 0.8 4.7 0.7 6.5-0.4l0.4-0.3c1.8-1.3 1.6-3.1-0.4-4-30-14.1-74.8-13.6-108.9 1.2q-0.3 0.2-0.6 0.3z"/><path class="f" d="m784.3 898.3q-0.4 0.2-0.7 0.4c-21.9 18-25.3 40.9-8.6 58.5 1.2 1.4 4.2 1.7 6.5 0.8q0.5-0.2 1-0.4c1.6-1 2.1-2.4 1.1-3.6-14.9-15.7-11.9-36.2 7.7-52.2 1.6-1.4 1.2-3.1-0.9-4-1.8-0.7-4.4-0.5-6.1 0.5z"/><path class="f" d="m788.9 963.8c-1.8 1-2.2 2.6-0.9 3.8 1.8 1.5 2.6 3.4 2.5 5.3-0.1 0.8 0.6 1.6 1.6 2.1 2 0.9 4.8 0.6 6.5-0.4 0.9-0.5 1.5-1.2 1.6-2 0.2-3-1-5.9-3.7-8.3-1.2-1.2-3.7-1.7-5.9-1.2q-1 0.3-1.7 0.7z"/></g></g><path class="b" d="m653.1 282.2l3 258.3c0.1 3.2 1.8 6.2 4.6 7.9l314.6 181.6c6.2 3.5 13.8-0.9 13.9-8l0.7-253.8c0-3.3-1.7-6.3-4.6-8l-318.3-186.1c-6.2-3.6-13.9 0.9-13.9 8.1z"/><path class="b" d="m971.4 733.5l10.8-2.6-13.6-19z"/><path class="b" d="m647.4 276.4l12.3-3.1 1.1 30.5z"/><path class="d" d="m977.5 471.4l-0.8 253.8c0 7.1-7.7 11.5-13.9 8l-158.9-91.8-155.6-89.8c-2.8-1.7-4.6-4.6-4.7-7.9l-2.9-258.3c-0.1-7.1 7.7-11.7 13.9-8.1l267.8 156.6 50.5 29.5c2.8 1.7 4.6 4.7 4.6 8z"/><path class="c" d="m664.4 480.3v26.8l45.3 26.2v-26.5z"/><path class="c" d="m720.5 512.2v26.8l45.2 26.2v-26.5z"/><path class="c" d="m775.4 544.2v26.8l45.2 26.2v-26.5z"/><path class="c" d="m833.9 578.6v26.8l45.2 26.2v-26.5z"/><g clip-path="url(#cp2)"><path class="c" d="m930.7 472c-15.8-4.4-28.7 10-28.9 32.2-0.2 22.2 12.5 43.8 28.3 48.2 15.8 4.4 28.8-10.1 28.9-32.3 0.2-22.2-12.5-43.7-28.3-48.1z"/></g><g clip-path="url(#cp3)"><path fill-rule="evenodd" class="c" d="m696.2 351.9q2.2 5.2 2.2 13.2v2.4q0 5.3-1 8.2-1 2.9-3.2 3.3 2.6 3.2 3.7 7.6 1.1 4.4 1.1 9.9v5.6q0 8-2.5 10.8-2.5 2.8-7.3 0l-10.2-5.7 0.1-68.9 9.8 5.5q5 2.9 7.3 8.1zm-8.1 19.5q1.8 1 2.8 0 1-0.9 1-5.1v-3.8q0-3.8-0.7-5.9-0.8-2.1-2.5-3.1l-3.1-1.7-0.1 18.2zm1.2 31.7c1.1 0.6 1.9 0.5 2.5-0.1 0.5-0.7 0.8-2.3 0.8-4.9v-5.9q0-4.9-0.9-7.2-1-2.3-3.2-3.6l-2.9-1.6v21.2z"/><path fill-rule="evenodd" class="c" d="m723.7 432.5l-6.5-3.7-1.1-13.1-7.9-4.5-1.2 11.9-5.9-3.4 6.7-65.2 9.4 5.4zm-8.5-26.7l-3-36.6-3.2 33.1z"/><path class="c" d="m747.2 376.9l-5.8-3.3v41.3l-6.6-45-8.1-4.6-0.1 68.9 5.8 3.3 0.1-50 7.9 54.5 6.7 3.8z"/><path class="c" d="m773.1 391.6l-6.4-3.7-8.5 25.3v-30l-6.4-3.7-0.1 68.9 6.4 3.7 0.1-21.2 2-5.2 6.2 31 6.6 3.8-8.9-43.3z"/></g><path class="g" d="m977.5 471.4l-0.8 253.8c0 7.1-7.7 11.5-13.9 8l-158.9-91.8c0.5-0.9 1.2-1.7 2.1-2.4 2.7-2.3 6.2-3.2 9.7-3.9 18.3-3.8 37.1-5.8 54.8-12 17.6-6.2 34.6-17.2 42.8-34 6.2-12.8 6.8-27.4 7.3-41.6 0.8-22 1.6-44.1 1.9-66.1 0.2-15.8 0.2-31.6-0.1-47.5l50.5 29.5c2.8 1.7 4.6 4.7 4.6 8z"/><path class="a" d="m284.4 575.4l-57.9 32.6 58.4 33.7 56.2-31.5z"/><path class="f" d="m228.7 428l0.5 169.8 47.8 28.3 2.3-168.9z"/><path class="h" d="m328 429.9l-48.7 27.3-2.3 168.9 51.5-30.7z"/><path class="i" d="m278.8 399.7l-50.1 28.3 50.6 29.2 48.7-27.3z"/><path class="g" d="m489.1 781.5c-59.8 0-108.2-31.9-108.2-71.2 0-39.4 48.4-71.2 108.2-71.2 59.8 0 108.2 31.8 108.2 71.2 0 39.3-48.4 71.2-108.2 71.2z"/><path class="j" d="m483.3 762.1c-59.9 0-108.2-31.9-108.2-71.2 0-39.4 48.3-71.2 108.2-71.2 59.8 0 108.1 31.8 108.1 71.2 0 39.3-48.3 71.2-108.1 71.2z"/><g style="opacity:.5;mix-blend-mode:soft-light"><path class="k" d="m501.1 655.3q-0.9 0.4-1.6 0.8-0.8 0.5-1.3 1.1-0.6 0.5-0.9 1.1-0.4 0.6-0.6 1.3l-9.7 41.3-35.2-4.5q-1.4-0.2-2.9-0.2-1.4 0.1-2.8 0.3-1.4 0.2-2.7 0.6-1.2 0.4-2.4 0.9-0.8 0.4-1.5 0.8-0.7 0.4-1.3 0.9-0.5 0.5-1 1.1-0.5 0.5-0.8 1.1c-0.5 1-0.7 2-0.5 2.9 0.1 1 0.6 1.8 1.3 2.6 0.7 0.8 1.7 1.5 3 2.1 1.2 0.5 2.7 0.9 4.3 1.1l49.7 6.6q1.4 0.2 2.7 0.2 1.3 0 2.7-0.2 1.3-0.2 2.5-0.5 1.3-0.3 2.4-0.8 0.1-0.1 0.2-0.1 0.1 0 0.2-0.1 0.1 0 0.2-0.1 0.1 0 0.2-0.1 1-0.5 1.7-1 0.8-0.6 1.4-1.3 0.6-0.6 1-1.3 0.4-0.7 0.5-1.4l10-49.9c0.2-0.9 0-1.7-0.4-2.5-0.4-0.8-1.2-1.5-2.1-2.2-0.9-0.6-2.1-1.1-3.4-1.5q-1.9-0.6-4.3-0.7-1.2 0-2.4 0.1-1.2 0.1-2.3 0.3-1.1 0.2-2.1 0.5-1 0.3-1.8 0.7z"/></g><path class="f" d="m496.5 650.6q-0.8 0.4-1.6 0.9-0.7 0.4-1.2 1-0.6 0.5-1 1.1-0.3 0.7-0.5 1.3l-9.7 41.3-35.2-4.5q-1.4-0.2-2.9-0.1-1.4 0-2.8 0.2-1.4 0.2-2.7 0.6-1.3 0.4-2.4 0.9-0.8 0.4-1.5 0.8-0.7 0.5-1.3 1-0.6 0.4-1 1-0.5 0.6-0.8 1.2-0.8 1.4-0.6 2.8c0.2 1 0.6 1.9 1.4 2.7 0.7 0.7 1.7 1.4 2.9 2 1.3 0.5 2.7 1 4.4 1.2l49.7 6.5q1.3 0.2 2.7 0.2 1.3 0 2.6-0.2 1.4-0.1 2.6-0.5 1.3-0.3 2.4-0.8 0.1 0 0.2-0.1 0.1 0 0.2-0.1 0.1 0 0.2-0.1 0.1 0 0.2 0 0.9-0.5 1.7-1.1 0.8-0.6 1.4-1.2 0.6-0.7 1-1.4 0.3-0.7 0.5-1.4l10-49.9c0.2-0.9 0-1.7-0.4-2.5-0.5-0.8-1.2-1.5-2.1-2.1-0.9-0.7-2.1-1.2-3.4-1.6q-2-0.5-4.4-0.6-1.2-0.1-2.3 0-1.2 0.1-2.3 0.3-1.1 0.2-2.1 0.5-1 0.3-1.9 0.7z"/><path class="g" d="m544.4 823.2l191.4-109.8 48.2 28.1-191.8 109z"/><path class="g" d="m621.2 889.7l210.7-121.6 48.3 28.1-213.8 121.9z"/><path class="a" d="m134 642.6l-83.8 47.3 84.6 48.9 81.5-45.8z"/><path class="f" d="m58.2 435.7l0.7 239.6 67.4 39.9 3.3-238.2z"/><path class="l" d="m198.3 438.3l-68.7 38.7-3.3 238.2 72.7-43.2z"/><path class="c" d="m128.9 395.8l-70.7 39.9 71.4 41.3 68.7-38.7z"/><path class="g" d="m504.6 603.6c-18.3 0-33-7.7-33-17.3 0-9.5 14.7-17.2 33-17.2 18.2 0 33 7.7 33 17.2 0 9.6-14.8 17.3-33 17.3z"/><path fill-rule="evenodd" class="m" d="m522.7 414.9c-3.7 3.3-7.9 5.7-12.3 6.9v14.1l0.2 61.8 5 1.9 12 4.5c1.5 0.6 3 1.6 4.2 2.9 1.3 1.3 2.5 2.9 3.5 4.7 1 1.8 1.8 3.9 2.3 6 0.6 2.1 0.9 4.3 0.8 6.5q0 1.7-0.2 3.2-0.2 1.4-0.6 2.7-0.4 1.3-1 2.3-0.6 1-1.4 1.8-0.7 0.8-1.6 1.3-0.8 0.5-1.8 0.7-1 0.2-2 0.1-1.1-0.1-2.2-0.5l-11.9-4.9-5-2v8l5 2.1 11.9 4.9c1.5 0.7 2.9 1.7 4.2 3 1.3 1.3 2.4 3 3.4 4.8 1 1.8 1.7 3.8 2.3 6 0.5 2.1 0.8 4.3 0.8 6.4q0 1.6-0.2 3.1-0.2 1.4-0.6 2.6-0.5 1.3-1 2.3-0.6 1-1.4 1.7-0.7 0.7-1.6 1.2-0.8 0.5-1.8 0.6-0.9 0.2-2 0.1-1-0.2-2.1-0.7l-16.8-7.4 0.1 25-13.1-6.1c-2.6-1.2-5.1-3.2-7.4-5.7-2.3-2.5-4.3-5.5-6-8.9-1.8-3.3-3.2-7-4.1-10.8-1-3.9-1.6-7.8-1.6-11.8l-1.2-124.1-0.2-13.6c-4.1-3.9-7.9-8.5-11.3-13.8-3.4-5.2-6.4-11.1-8.9-17.4-2.5-6.3-4.5-13.1-5.9-20.2-1.5-7-2.3-14.3-2.4-21.8-0.1-9.7 0.9-18.7 3-26.7 2-8.1 5.1-15.2 9-21 3.9-5.8 8.7-10.2 14-12.9 5.4-2.8 11.5-3.8 18-2.7 6.5 1.2 12.8 4.4 18.6 9.4 5.8 4.9 11.2 11.5 15.7 19.4 4.5 7.9 8.1 16.9 10.7 26.7 2.5 9.8 3.9 20.2 3.8 30.7 0 8.1-0.8 15.7-2.4 22.5-1.6 6.8-3.8 12.9-6.6 18.2-2.8 5.2-6.2 9.5-9.9 12.9zm-42.1-104.8c0 3.1 0.4 6 1.1 8.8 0.7 2.8 1.8 5.4 3 7.7 1.3 2.2 2.8 4.2 4.4 5.7 1.7 1.5 3.5 2.5 5.5 3 1.9 0.4 3.7 0.2 5.4-0.5 1.7-0.7 3.2-2 4.5-3.7 1.3-1.8 2.3-3.9 3.1-6.5 0.7-2.5 1.1-5.4 1.1-8.5 0-3.1-0.5-6.2-1.2-9.1-0.7-2.8-1.8-5.5-3.1-7.8-1.3-2.3-2.9-4.2-4.6-5.7-1.7-1.5-3.6-2.5-5.5-2.9-2-0.3-3.8-0.1-5.5 0.7-1.6 0.9-3.1 2.2-4.3 4-1.3 1.7-2.3 3.9-2.9 6.4-0.7 2.5-1.1 5.4-1 8.4z"/><path class="n" d="m472.9 413.1l1.3 137.8c0.1 3.9 0.6 7.9 1.6 11.7 1 3.9 2.4 7.6 4.1 10.9 1.7 3.4 3.7 6.4 6 8.9 2.3 2.5 4.8 4.4 7.4 5.7l13.1 6-0.1-25-2.6-1.1c-1.5-0.7-2.8-1.7-4-3-1.2-1.3-2.3-2.9-3.2-4.7-1-1.7-1.7-3.7-2.2-5.7-0.5-2.1-0.8-4.2-0.8-6.3q-0.1-1.5 0.1-2.9 0.2-1.4 0.6-2.6 0.4-1.2 0.9-2.2 0.6-1 1.2-1.8 0.7-0.7 1.5-1.2 0.9-0.5 1.8-0.7 0.9-0.2 1.9-0.1 1 0.1 2 0.6l2.8 1.1-0.1-8.1-2.7-1.1c-1.4-0.6-2.8-1.6-4-2.8-1.2-1.3-2.3-2.9-3.2-4.7-1-1.7-1.7-3.7-2.2-5.7-0.6-2.1-0.9-4.2-0.9-6.3q0-1.6 0.2-3.1 0.2-1.4 0.6-2.6 0.4-1.3 0.9-2.3 0.6-1 1.3-1.8 0.6-0.8 1.5-1.3 0.8-0.6 1.7-0.8 0.9-0.2 1.9-0.2 1 0.1 2.1 0.5l2.7 1-0.1-61.7q-2 0.5-4 0.7-2.1 0.2-4.2 0.2-2.1-0.1-4.2-0.5-2.1-0.4-4.3-1.1-2.2-0.7-4.3-1.7-2.1-1-4.2-2.3-2-1.3-4-2.8-1.9-1.5-3.8-3.2z"/><path class="n" d="m523.1 545.5l-11.9-5 0.1 30.8-5-2.2v-30.6l-2.8-1.1q-1-0.5-2-0.6-1-0.1-1.9 0.1-0.9 0.2-1.8 0.7-0.8 0.5-1.5 1.2-0.6 0.8-1.2 1.8-0.5 1-0.9 2.2-0.4 1.2-0.6 2.6-0.2 1.4-0.1 2.9c0 2.1 0.3 4.2 0.8 6.3 0.5 2 1.2 4 2.2 5.7 0.9 1.8 2 3.4 3.2 4.7 1.2 1.3 2.5 2.3 4 3l2.6 1.1 16.8 7.5q1.1 0.5 2.2 0.6 1 0.2 2 0 0.9-0.2 1.8-0.6 0.8-0.5 1.6-1.2 0.7-0.8 1.3-1.8 0.6-1 1-2.2 0.4-1.2 0.6-2.7 0.2-1.4 0.2-3c0.1-2.2-0.2-4.4-0.8-6.5-0.5-2.1-1.3-4.1-2.3-6-1-1.8-2.1-3.4-3.4-4.7-1.3-1.4-2.7-2.4-4.2-3z"/><path class="n" d="m523.2 505.7l-12-4.6v31.3l-5-2-0.1-31.2-2.7-1q-1.1-0.4-2.1-0.5-1 0-1.9 0.2-0.9 0.2-1.7 0.8-0.9 0.5-1.5 1.3-0.7 0.8-1.3 1.8-0.5 1-0.9 2.3-0.4 1.2-0.6 2.6-0.2 1.5-0.2 3.1c0 2.1 0.3 4.2 0.9 6.3 0.5 2 1.2 4 2.2 5.7 0.9 1.8 2 3.4 3.2 4.7 1.2 1.2 2.6 2.2 4 2.8l2.7 1.1 16.9 6.9q1.2 0.5 2.2 0.6 1 0.1 2-0.1 1-0.2 1.8-0.7 0.9-0.6 1.7-1.3 0.7-0.8 1.3-1.8 0.6-1.1 1-2.3 0.4-1.3 0.6-2.8 0.3-1.4 0.3-3.1c0-2.2-0.3-4.4-0.9-6.6-0.5-2.1-1.3-4.1-2.3-5.9-1-1.9-2.1-3.5-3.4-4.8-1.3-1.3-2.7-2.2-4.2-2.8z"/><path class="o" d="m472.9 413.1l0.1 13.7q1.9 1.7 3.8 3.2 2 1.5 4 2.8 2.1 1.3 4.2 2.3 2.1 1 4.3 1.7 2.2 0.7 4.3 1.1 2.1 0.4 4.2 0.5 2.1 0 4.2-0.2 2-0.2 4-0.7l-0.1-14.1q-2 0.6-4 0.8-2 0.3-4.1 0.2-2.1 0-4.3-0.4-2.1-0.3-4.3-1-2.2-0.7-4.3-1.7-2.1-1-4.2-2.2-2-1.3-4-2.8-1.9-1.5-3.8-3.2z"/><path fill-rule="evenodd" class="n" d="m506.9 286c5.9 5 11.2 11.6 15.7 19.4 4.5 7.9 8.2 17 10.7 26.8 2.5 9.7 3.9 20.1 3.9 30.7-0.1 8.1-0.9 15.6-2.5 22.5-1.5 6.8-3.8 12.9-6.6 18.1-2.8 5.3-6.1 9.6-9.9 13-3.7 3.3-7.9 5.6-12.3 6.9q-2 0.6-4 0.8-2 0.3-4.1 0.2-2.1 0-4.3-0.4-2.1-0.3-4.3-1-2.2-0.7-4.3-1.7-2.1-1-4.2-2.2-2-1.3-4-2.8-1.9-1.5-3.8-3.2c-4.2-3.8-8-8.4-11.4-13.7-3.4-5.3-6.4-11.1-8.9-17.5-2.5-6.3-4.5-13.1-5.9-20.1-1.4-7-2.2-14.4-2.4-21.8-0.1-9.7 0.9-18.8 3-26.8 2.1-8.1 5.1-15.1 9-20.9 3.9-5.8 8.7-10.3 14-13 5.5-2.7 11.5-3.8 18-2.6 6.5 1.2 12.8 4.4 18.6 9.3zm-11.3 50.4c1.6-0.8 3.2-2 4.4-3.8 1.3-1.7 2.4-3.9 3.1-6.4 0.7-2.5 1.1-5.4 1.1-8.5 0-3.2-0.4-6.2-1.2-9.1-0.7-2.9-1.8-5.5-3.1-7.8-1.3-2.3-2.8-4.3-4.6-5.8-1.7-1.4-3.5-2.4-5.5-2.8-1.9-0.4-3.8-0.1-5.4 0.7-1.7 0.8-3.2 2.2-4.4 3.9-1.2 1.8-2.2 4-2.9 6.5-0.7 2.5-1 5.3-1 8.4 0 3 0.4 6 1.1 8.8 0.8 2.8 1.8 5.4 3 7.6 1.3 2.3 2.8 4.2 4.5 5.7 1.6 1.5 3.5 2.6 5.4 3 1.9 0.5 3.8 0.3 5.5-0.4z"/><path class="o" d="m511.2 501.1l-5.1-1.9 0.1 31.2 5 2z"/><path class="o" d="m511.2 540.5l-4.9-2v30.6l5 2.2z"/><path class="m" d="m510.9 592.6l-4.5 1.5v-11.4z"/><path class="g" d="m1105.4 871.5l-107 20 34.6-61.7z"/><path class="f" d="m1223 839.7l-230.3 43 76.3-135.9 57.6 34.7 0.7 36 31.8-16.3z"/><path class="p" d="m1126.6 781.4l-133.9 101.3 134.6-65.2z"/><path class="g" d="m647.3 820.8v142.4c0 9.7-0.7 18.9-2 27.6-1.5 9.9-3.7 19.1-6.6 27.7l-298.2-172.2c-0.5-7.6-0.9-15.3-0.9-23v-142.5q0 0 0.8-0.1l32.9-18.1c0 0 53.4-12.6 137 35.7 83.6 48.3 137 122.5 137 122.5z"/><path class="a" d="m564.6 1155.4c-2.7 26.3-55.8 42.3-118.7 35.9-62.8-6.4-111.6-32.9-108.9-59.1 2.7-26.3 55.8-42.3 118.7-35.9 62.8 6.4 111.6 32.9 108.9 59.1z"/><path class="b" d="m454.8 738.1c-83.6-48.3-137-35.7-137-35.7l-33.5 18.4c23.9 2.4 92.9 10.2 136.8 35.5 83.6 48.3 136.9 122.5 136.9 122.5v142.4c0 62.6-45.1 113-70 133.1 45.1-16.2 103.8-61.7 103.8-151.3v-142.4c0 0-53.4-74.2-137-122.5z"/><path class="c" d="m558 1021.2v-142.4c0 0-53.3-74.2-136.9-122.5-43.9-25.3-79.4-33.9-103.3-36.3-21.6-2.2-33.7 0.6-33.7 0.6v142.4c0 162.8 137 300.7 137 300.7 0 0 51.8 7.6 91.7-24.4 25-20 45.2-55.5 45.2-118.1z"/><path class="d" d="m313.3 756.8c0 0-44.5 253 107.8 370 0 0 147.7 39.7 107.8-245.5 0 0-90.2-137.3-215.6-124.5z"/><path fill-rule="evenodd" class="f" d="m421.1 1141.7l-2.5-2.8c-11.4-12.8-33.7-39.5-55.5-74.8-40.8-65.9-61.4-130.1-61.4-190.9v-131.2l3-0.1c7.6-0.4 15.8 0 24.5 1.2 20 2.6 52.2 10.5 91.9 33.4 40.4 23.4 73.1 53.3 93.4 74.2 8.2 8.5 15.9 17 23 25.5l3 3.7v131.2c0 61.4-21 102-62.6 120.5-21.4 9.6-43.2 10.5-54.3 10.2zm-107.8-384.9v123.1c0 56.8 19.4 116.9 57.6 178.6 19.2 31.1 38.8 55.2 50.2 68.2 11.1 0.1 30.2-1.3 49.1-9.7 38.9-17.4 58.7-55.3 58.7-112.7v-123.1c-5.9-6.8-12.1-13.7-18.7-20.4-19.3-20-50.5-48.6-89.1-70.8-37.9-21.9-68.6-29.5-87.7-32-7-0.9-13.8-1.3-20.1-1.2z"/><g style="opacity:.5;mix-blend-mode:soft-light"><path class="k" d="m490.8 892.5q-1.5-0.4-2.9-0.5-1.4-0.1-2.7 0.2-1.4 0.2-2.6 0.9-1.2 0.7-2.2 1.8l-59.2 64.5-21.7-40.7q-1-1.7-2.1-3.2-1.2-1.5-2.4-2.7-1.3-1.2-2.6-2.1-1.4-0.8-2.7-1.3-1-0.3-2-0.5-1-0.1-1.9 0-1 0-1.9 0.3-0.8 0.3-1.6 0.9c-1.3 0.8-2.3 2-3 3.5-0.7 1.5-1.1 3.2-1.2 5.1-0.2 1.8 0 3.9 0.5 5.9 0.5 2.1 1.2 4.1 2.3 6.2l30.9 57.9q0.9 1.6 2 3.1 1.1 1.4 2.3 2.6 1.2 1.2 2.5 2.2 1.3 0.9 2.7 1.5 0.1 0 0.1 0 0 0 0.1 0 0 0 0 0 0.1 0.1 0.1 0.1 1.4 0.5 2.7 0.7 1.2 0.1 2.4-0.1 1.2-0.2 2.3-0.7 1-0.6 1.9-1.5l70.3-73.3c1.3-1.3 2.2-3 2.7-4.8 0.6-1.9 0.8-4 0.6-6.1-0.1-2.2-0.6-4.4-1.4-6.6-0.8-2.2-1.9-4.3-3.3-6.3q-1-1.3-2.1-2.5-1.1-1.1-2.2-1.9-1.2-0.9-2.4-1.5-1.1-0.7-2.3-1.1z"/></g><path class="f" d="m483.9 893.5q-1.5-0.5-2.9-0.6-1.4-0.1-2.8 0.2-1.3 0.3-2.5 0.9-1.2 0.7-2.2 1.8l-59.2 64.5-21.7-40.6q-1-1.8-2.1-3.3-1.2-1.5-2.4-2.7-1.3-1.2-2.6-2-1.4-0.9-2.8-1.4-0.9-0.3-1.9-0.5-1-0.1-1.9 0-1 0-1.9 0.3-0.8 0.3-1.6 0.9c-1.3 0.8-2.3 2-3 3.5-0.7 1.5-1.1 3.2-1.2 5.1-0.2 1.9 0 3.9 0.5 5.9 0.5 2.1 1.2 4.2 2.3 6.2l30.9 57.9q0.9 1.7 2 3.1 1 1.5 2.3 2.7 1.2 1.2 2.5 2.1 1.3 0.9 2.7 1.5 0.1 0 0.1 0 0 0 0.1 0 0 0 0 0.1 0.1 0 0.1 0 1.4 0.5 2.6 0.7 1.3 0.1 2.5-0.1 1.2-0.1 2.3-0.7 1-0.6 1.9-1.5l70.3-73.3c1.3-1.3 2.2-3 2.7-4.8 0.6-1.9 0.8-3.9 0.6-6.1-0.1-2.1-0.6-4.4-1.4-6.6-0.8-2.2-1.9-4.3-3.3-6.3q-1-1.3-2.1-2.4-1.1-1.1-2.2-2-1.2-0.9-2.4-1.5-1.1-0.7-2.3-1z"/><g clip-path="url(#cp4)"><path fill-rule="evenodd" class="c" d="m1353.9 786.2c-0.7 29.1-14.3 45.5-30.4 36.4l-234.5-132.7c-16-9.1-28.6-40.2-27.9-69.4 0.6-29.2 14.3-45.5 30.3-36.4l234.5 132.7c16.1 9.1 28.6 40.2 28 69.4zm-30.3 33c15 8.5 27.8-6.8 28.4-34.1 0.6-27.3-11.1-56.4-26.2-64.9l-234.4-132.7c-15.1-8.5-27.8 6.8-28.4 34.1-0.7 27.3 11.1 56.4 26.1 64.9z"/><path class="c" d="m1107 630.1c-3.9-2.2-6.6 0.3-6.7 6.2-0.3 13.4 10.5 13.3 10.3 23-0.1 3.3-1.6 5.1-4.1 3.7-2.8-1.6-3.9-5.2-4-8.3l-2.7-1.6c-0.1 6 2.6 11.6 6.6 13.8 4.3 2.5 6.7-1.3 6.8-6.4 0.3-13.3-10.5-13.5-10.3-22.8 0.1-3.8 1.7-4.9 3.8-3.7q0.1 0 0.1 0c2.4 1.5 3.6 4.9 3.8 7.4l2.8 1.6c-0.2-5.6-2.6-10.7-6.4-12.9z"/><path class="c" d="m1128.3 642.5l-10.7-6-0.8 36 10.6 6 0.1-3.9-8.1-4.5 0.3-12.4 7.2 4.1 0.1-3.9-7.2-4.1 0.3-12 8.1 4.6z"/><path class="c" d="m1141.1 649.4c-5.5-3.1-10.1 2-10.3 12.8-0.3 10.8 3.9 20.7 9.5 23.9 4.3 2.4 7.7 0.4 9.4-5.6l-3.1-1.7c-1.2 3.6-3.3 4.8-6.2 3.2-4.2-2.4-7.2-9.6-7-18.3 0.2-8.8 3.5-12.5 7.6-10.2 2.9 1.7 4.9 5.2 5.9 10.2l3.1 1.8c-1.3-7.9-4.6-13.7-8.9-16.1z"/><path class="c" d="m1168.9 665.6l-2.5-1.4-0.6 22.7c-0.1 6.6-2.1 8.3-5 6.6-3-1.6-4.8-5.5-4.7-12.2l0.5-22.7-2.6-1.4-0.5 22.6c-0.2 9.4 3.1 15.5 7.1 17.8 4.1 2.4 7.6 0 7.8-9.3z"/><path fill-rule="evenodd" class="c" d="m1186.3 686.1c-0.1 4.6-1.6 8.2-5 7.6l4.7 17.9-3.1-1.7-4.4-17.4-3.1-1.8-0.4 14.7-2.6-1.4 0.9-35.9 6.3 3.6c4.7 2.6 6.8 8.5 6.7 14.4zm-7 3c2.9 1.7 4.2-0.5 4.3-4.5 0.1-4.1-1.1-7.4-4-9.1l-3.8-2.1-0.3 13.6z"/><path class="c" d="m1193.1 679.3l-2.6-1.5-0.8 35.9 2.6 1.5z"/><path class="c" d="m1209.7 688.7l-13.4-7.6-0.1 3.8 5.4 3.1-0.7 32.1 2.6 1.4 0.7-32.1 5.4 3.1z"/><path class="c" d="m1226.7 698.3l-2.8-1.6-5.3 15.4-4.5-20.9-2.9-1.7 6 26.1-0.3 13.5 2.6 1.5 0.3-13.6z"/><path class="c" d="m1246 708.7c-5.5-3.1-10.1 2.1-10.3 12.9-0.3 10.7 3.9 20.7 9.4 23.8 4.3 2.5 7.8 0.5 9.5-5.6l-3.1-1.7c-1.2 3.6-3.4 4.9-6.3 3.2-4.1-2.3-7.1-9.5-6.9-18.3 0.2-8.8 3.4-12.5 7.6-10.1 2.9 1.6 4.9 5.2 5.9 10.1l3.1 1.8c-1.3-7.8-4.6-13.6-8.9-16.1z"/><path fill-rule="evenodd" class="c" d="m1277.5 745.2c-0.3 10.8-4.8 15.9-10.4 12.7-5.5-3.1-9.7-13.2-9.5-23.9 0.3-10.8 4.8-15.9 10.4-12.8 5.6 3.2 9.7 13.2 9.5 24zm-2.7-1.5c0.2-8.8-2.8-16-6.9-18.4-4.2-2.4-7.4 1.3-7.6 10.1-0.2 8.8 2.8 16.1 6.9 18.4 4.2 2.4 7.4-1.3 7.6-10.1z"/><path fill-rule="evenodd" class="c" d="m1297.6 756.7c-0.3 11.1-4.4 15.6-10.9 11.9l-6.2-3.5 0.8-35.9 6.2 3.5c6.5 3.7 10.3 12.8 10.1 24zm-10.8 8c5.1 3 7.9-0.8 8.1-9.5 0.2-8.8-2.3-15.8-7.5-18.7l-3.6-2.1-0.6 28.3z"/><path class="c" d="m1312 746.5l-10.6-6-0.8 36 10.6 6 0.1-3.9-8-4.5 0.2-12.4 7.2 4.1 0.1-3.9-7.2-4.1 0.3-12 8.1 4.6z"/></g><g clip-path="url(#cp5)"><path fill-rule="evenodd" class="c" d="m589.1 225.3c-0.7 29.2-14.3 45.5-30.4 36.4l-234.5-132.7c-16.1-9.1-28.6-40.2-27.9-69.4 0.6-29.2 14.2-45.5 30.3-36.4l234.5 132.7c16.1 9.1 28.6 40.2 28 69.4zm-30.3 33c15 8.5 27.7-6.8 28.4-34.1 0.6-27.3-11.1-56.4-26.2-64.9l-234.4-132.7c-15.1-8.5-27.8 6.8-28.4 34.1-0.7 27.3 11.1 56.4 26.1 64.9z"/><path class="c" d="m367.5 84l-2.7-1.6-6.9 27.5-5.5-34.5-2.8-1.6 6.7 40.2 2.9 1.7z"/><path class="c" d="m381 91.6l-10.6-6-0.8 35.9 10.6 6 0.1-3.8-8.1-4.6 0.3-12.4 7.2 4.1 0.1-3.8-7.2-4.1 0.3-12 8 4.5z"/><path fill-rule="evenodd" class="c" d="m397.9 111.9c-0.1 4.6-1.6 8.2-4.9 7.7l4.6 17.8-3.1-1.8-4.3-17.3-3.2-1.8-0.3 14.7-2.6-1.5 0.8-35.9 6.4 3.6c4.7 2.7 6.8 8.6 6.6 14.5zm-7 3c3 1.7 4.3-0.5 4.4-4.5 0.1-4.1-1.1-7.4-4.1-9.1l-3.8-2.1-0.3 13.6z"/><path class="c" d="m404.8 105.1l-2.6-1.5-0.8 35.9 2.6 1.5z"/><path class="c" d="m420.4 113.9l-11.2-6.3-0.8 35.9 2.6 1.4 0.3-16.1 7 3.9 0.1-3.8-7-4 0.3-12.1 8.6 4.9z"/><path class="c" d="m426.1 117.1l-2.6-1.4-0.8 35.9 2.6 1.4z"/><path class="c" d="m439.4 124.2c-5.5-3.1-10 2-10.3 12.8-0.2 10.8 3.9 20.8 9.5 23.9 4.3 2.4 7.8 0.5 9.4-5.6l-3.1-1.7c-1.2 3.6-3.3 4.8-6.2 3.2-4.2-2.3-7.1-9.5-6.9-18.3 0.2-8.8 3.4-12.5 7.5-10.2 2.9 1.7 5 5.3 6 10.2l3 1.8c-1.3-7.8-4.6-13.7-8.9-16.1z"/><path fill-rule="evenodd" class="c" d="m467.6 177l-2.7-1.6-1.4-8.8-8.7-4.9-1.7 7.1-2.7-1.6 7.9-31.6 3 1.7zm-4.8-14.7l-3.1-20.1-4 16.1z"/><path class="c" d="m483.7 149.7l-13.4-7.5v3.8l5.4 3.1-0.7 32 2.5 1.5 0.8-32.1 5.4 3.1z"/><path class="c" d="m489.5 153l-2.6-1.5-0.8 36 2.6 1.4z"/><path fill-rule="evenodd" class="c" d="m512.4 184.1c-0.2 10.8-4.7 15.9-10.3 12.7-5.6-3.1-9.8-13.1-9.6-23.9 0.3-10.8 4.8-15.9 10.4-12.7 5.6 3.2 9.8 13.2 9.5 23.9zm-2.6-1.5c0.2-8.8-2.8-16-7-18.4-4.2-2.3-7.4 1.4-7.6 10.2-0.2 8.7 2.8 16 7 18.4 4.1 2.3 7.4-1.4 7.6-10.2z"/><path class="c" d="m531.8 176.9l-2.6-1.5-0.6 28.6-9.8-34.4-2.6-1.5-0.8 35.9 2.6 1.5 0.7-28.6 9.7 34.5 2.6 1.4z"/></g><g clip-path="url(#cp6)"><path fill-rule="evenodd" class="c" d="m1067.3 390.9c-0.6 29.1-14.3 45.5-30.3 36.4l-234.5-132.7c-16.1-9.1-28.6-40.2-28-69.4 0.7-29.2 14.3-45.5 30.4-36.4l234.5 132.7c16.1 9.1 28.6 40.2 27.9 69.4zm-30.3 32.9c15.1 8.6 27.8-6.7 28.4-34 0.7-27.3-11.1-56.4-26.1-64.9l-234.5-132.7c-15-8.5-27.7 6.8-28.4 34.1-0.6 27.3 11.1 56.4 26.2 64.9z"/><path class="c" d="m863.6 259.6l-13.4-7.6-0.1 3.9 5.4 3-0.7 32.1 2.5 1.5 0.8-32.1 5.4 3z"/><path fill-rule="evenodd" class="c" d="m879.8 279.5c-0.1 4.6-1.6 8.2-5 7.6l4.6 17.9-3-1.7-4.4-17.4-3.1-1.8-0.4 14.7-2.6-1.4 0.8-36 6.4 3.6c4.7 2.7 6.8 8.6 6.7 14.5zm-7.1 3c3 1.7 4.3-0.5 4.4-4.5 0.1-4.1-1.1-7.4-4.1-9.1l-3.7-2.1-0.4 13.6z"/><path fill-rule="evenodd" class="c" d="m899.2 316.2l-2.7-1.6-1.4-8.9-8.6-4.8-1.8 7.1-2.8-1.6 8-31.6 3 1.6zm-4.8-14.6l-3.2-20.2-3.9 16.1z"/><path class="c" d="m918.7 290.8l-2.6-1.5-0.6 28.6-9.7-34.4-2.6-1.5-0.9 36 2.6 1.4 0.7-28.6 9.7 34.5 2.6 1.5z"/><path class="c" d="m929.2 296.3c-3.9-2.2-6.6 0.3-6.7 6.3-0.3 13.3 10.5 13.2 10.3 22.9-0.1 3.4-1.6 5.1-4.1 3.7-2.8-1.6-3.9-5.2-4-8.3l-2.7-1.6c-0.1 6 2.6 11.6 6.6 13.9 4.3 2.4 6.7-1.4 6.8-6.5 0.3-13.3-10.5-13.5-10.3-22.8 0.1-3.8 1.7-4.9 3.8-3.7q0.1 0 0.1 0.1c2.5 1.4 3.6 4.8 3.7 7.4l2.9 1.6c-0.2-5.7-2.6-10.8-6.4-13z"/><path class="c" d="m951 309.1l-11.2-6.3-0.8 35.9 2.6 1.5 0.3-16.2 7 3.9 0.1-3.8-7-4 0.3-12.1 8.6 4.9z"/><path class="c" d="m964.8 316.8l-10.7-6-0.8 36 10.6 6 0.1-3.9-8-4.5 0.3-12.4 7.2 4.1v-3.9l-7.2-4.1 0.3-12 8.1 4.6z"/><path fill-rule="evenodd" class="c" d="m981.7 337.2c-0.1 4.5-1.6 8.1-5 7.6l4.7 17.9-3.1-1.8-4.4-17.3-3.1-1.8-0.3 14.7-2.6-1.5 0.8-35.9 6.4 3.6c4.6 2.6 6.7 8.6 6.6 14.5zm-7 3c2.9 1.6 4.2-0.5 4.3-4.5 0.1-4.1-1.1-7.4-4-9.1l-3.8-2.1-0.3 13.5z"/></g></svg>