<svg version="1.2" xmlns="http://www.w3.org/2000/svg" viewBox="0 0 800 600" width="800" height="600"><style>.a{fill:#aae0ff}.b{fill:#2d5b98}.c{fill:#5896fa}.d{fill:#0e0e0e}.e{fill:#ffca59}.f{fill:#ed5a24}.g{fill:none;stroke:#2e77e6;stroke-miterlimit:10;stroke-width:8.7;stroke-dasharray:13.095899999999999,13.095899999999999}.h{fill:#fff}.i{fill:#80b2ff}.j{fill:#005cea}.k{fill:#1251b3}.l{fill:#d9ffff}.m{fill:#296acc}.n{fill:#2e77e6}.o{fill:#fff;stroke:#5896fa;stroke-miterlimit:10;stroke-width:6.3}.p{fill:#d1f5ff}.q{fill:#3383ff}.r{fill:none;stroke:#fff;stroke-miterlimit:10;stroke-width:4.2}.s{fill:#ea7b00}.t{fill:#982c20}.u{fill:#f2b066}.v{fill:#007880}.w{fill:#005459}.x{fill:#b15626}.y{fill:#f7a594}.z{fill:#99c1ff}.A{fill:#f4856d}</style><path class="a" d="m202.2 119.9h393.3v391.8h-393.3z"/><path class="b" d="m85.5 600h629.4c1.9 0 3.5-1.5 3.5-3.5 0-1.9-1.6-3.4-3.5-3.4h-629.4c-1.9 0-3.5 1.5-3.5 3.4 0 2 1.6 3.5 3.5 3.5z"/><path class="c" d="m255.1 565.5c-19.4 0-35.2-15.7-35.2-35.1v-48h70.4v48c0 19.4-15.8 35.1-35.2 35.1z"/><path class="d" d="m216 518.6h3.9v74.5h-3.9z"/><path class="d" d="m290.3 518.6h3.8v74.5h-3.8z"/><path class="d" d="m260.4 518.6h3.9v74.5h-3.9z"/><path class="d" d="m216 565.5h74.4v3.9h-74.4z"/><path class="e" d="m309.8 403.2c4.3 6.1-4.2 11.4-5.6 19.9-1.3 8.4 8.4 13.2-1.9 24.3-6.3 6.8-11.7-2.2-16.8 8.2-5.2 10.5-1.1 12.3-6.9 16-10.1 6.6-25.6-7.9-20.4-18.4 5.2-10.4 15.7-9.5 10.9-18.1-4.9-8.6-6.7-12.3 1.7-16.7 10.4-5.5 19.5-0.5 20.3-8.5 0.9-8 13.1-14.8 18.7-6.7z"/><path class="d" d="m265.5 481.9l-1.8-0.3c8.2-41.4 35.4-70.3 35.6-70.6l1.3 1.2c-0.3 0.3-27 28.9-35.1 69.7z"/><path class="f" d="m173.8 387.9c-4.4 9 8 14.2 11.5 25.2 3.4 10.9-9.3 14.8 6.5 27.4 9.8 7.7 11.8 2.9 15.4 20.3 3.2 15.3 14.8 0.7 23.5 9.7 11.2 11.6 28.7-13.8 19.8-26.7-9-12.7-19.5-9.4-14.8-21.8 4.7-12.4-0.9-21.7-12.9-25.9-14.8-5.1-20.1 7.3-22.9-3.1-2.7-10.4-20.3-16.9-26.1-5.1z"/><path class="d" d="m248.4 483.2c-18.9-52.5-60.1-84.9-60.6-85.2l1.5-1.9c0.4 0.3 42.2 33.2 61.3 86.3z"/><path fill-rule="evenodd" class="g" d="m299.9 338c-83.2 0-150.4-67.3-150.4-150.4 0-83.2 67.2-150.5 150.4-150.5 83.2 0 150.4 67.3 150.4 150.5 0 83.1-67.2 150.4-150.4 150.4z"/><path class="h" d="m338 177.7c0.1-1.2 0.3-2.4 0.3-3.6 0-14.6-11.9-26.5-26.5-26.5-11 0-20.4 6.7-24.5 16.2-3.2-2.9-7.6-4.7-12.3-4.7-10.2 0-18.5 8.3-18.5 18.5h-3.4c-9.9 0-17.9 8.1-17.9 17.9 0 9.9 8 17.9 17.9 17.9h83.6c9.8 0 17.9-8 17.9-17.9 0-9.4-7.4-17.1-16.6-17.8z"/><path class="c" d="m235.7 288.8c0-13.3 10.7-24.1 24.1-24.1h77.4c13.3 0 24.1 10.8 24.1 24.1v59.4c0 13.3-10.8 24.1-24.1 24.1h-77.4c-13.4 0-24.1-10.8-24.1-24.1z"/><path class="h" d="m336.5 329.6h-75.7c-2.5 0-4.5-2-4.5-4.5 0-2.5 2-4.5 4.5-4.5h75.7c2.5 0 4.5 2 4.5 4.5 0 2.5-2 4.5-4.5 4.5z"/><path class="h" d="m336.5 344.1h-75.7c-2.5 0-4.5-2-4.5-4.5 0-2.4 2-4.5 4.5-4.5h75.7c2.5 0 4.5 2.1 4.5 4.5 0 2.5-2 4.5-4.5 4.5z"/><path class="i" d="m273.3 341.6c-0.8 0-1.6-0.7-1.6-1.6 0-0.8 0.8-1.5 1.6-1.5 0.9 0 1.6 0.7 1.6 1.5 0 0.9-0.7 1.6-1.6 1.6z"/><path class="i" d="m278.8 341.6c-0.9 0-1.6-0.7-1.6-1.6 0-0.8 0.7-1.5 1.6-1.5 0.8 0 1.5 0.7 1.5 1.5 0 0.9-0.7 1.6-1.5 1.6z"/><path class="i" d="m284.2 341.6c-0.9 0-1.6-0.7-1.6-1.6 0-0.8 0.7-1.5 1.6-1.5 0.9 0 1.6 0.7 1.6 1.5 0 0.9-0.7 1.6-1.6 1.6z"/><path class="i" d="m289.6 341.6c-0.9 0-1.6-0.7-1.6-1.6 0-0.8 0.7-1.5 1.6-1.5 0.9 0 1.6 0.7 1.6 1.5 0 0.9-0.7 1.6-1.6 1.6z"/><path class="i" d="m295.1 341.6c-0.9 0-1.6-0.7-1.6-1.6 0-0.8 0.7-1.5 1.6-1.5 0.9 0 1.6 0.7 1.6 1.5 0 0.9-0.7 1.6-1.6 1.6z"/><path class="i" d="m300.5 341.6c-0.9 0-1.6-0.7-1.6-1.6 0-0.8 0.7-1.5 1.6-1.5 0.9 0 1.6 0.7 1.6 1.5 0 0.9-0.7 1.6-1.6 1.6z"/><path class="i" d="m306 341.6c-0.9 0-1.6-0.7-1.6-1.6 0-0.8 0.7-1.5 1.6-1.5 0.8 0 1.5 0.7 1.5 1.5 0 0.9-0.7 1.6-1.5 1.6z"/><path class="i" d="m311.4 341.6c-0.9 0-1.6-0.7-1.6-1.6 0-0.8 0.7-1.5 1.6-1.5 0.9 0 1.6 0.7 1.6 1.5 0 0.9-0.7 1.6-1.6 1.6z"/><path class="i" d="m316.8 341.6c-0.9 0-1.6-0.7-1.6-1.6 0-0.8 0.7-1.5 1.6-1.5 0.9 0 1.6 0.7 1.6 1.5 0 0.9-0.7 1.6-1.6 1.6z"/><path class="h" d="m298.7 308c-9.7 0-17.4-7.8-17.4-17.4 0-9.6 7.7-17.4 17.4-17.4 9.6 0 17.4 7.8 17.4 17.4 0 9.6-7.8 17.4-17.4 17.4z"/><path class="j" d="m298.7 289.9c1.7 0 3.2-0.8 4.2-2.1 0.8-0.9 1.2-2.1 1.2-3.4 0-3-2.4-5.5-5.4-5.5-3.1 0-5.5 2.5-5.5 5.5 0 1.3 0.4 2.5 1.2 3.4 1 1.3 2.5 2.1 4.3 2.1z"/><path class="j" d="m308.3 299.7c0 3.5-19.3 3.5-19.3 0v-4.1c0.7-5.5 17.7-5.7 19.3 0z"/><path fill-rule="evenodd" class="c" d="m264.8 338.8v3.2c0 0.5-4.1 0.5-4.1 0v-3.2h0.3v-0.2c0-1 0.8-1.8 1.7-1.8 1 0 1.8 0.8 1.8 1.8v0.2zm-3.2 0h2.3v-0.2c0-0.7-0.4-1.2-1.1-1.2-0.8 0-1.2 0.5-1.2 1.2zm1.7 1.1c0-0.3-0.2-0.6-0.5-0.6-0.4 0-0.6 0.3-0.6 0.6 0 0.2 0.1 0.4 0.3 0.5v0.9c0 0.2 0.1 0.3 0.3 0.3 0.1 0 0.3-0.1 0.3-0.3v-0.9c0.1-0.1 0.2-0.3 0.2-0.5z"/><path class="c" d="m262.7 324.8c0.4 0 0.8-0.2 0.9-0.5q0.3-0.2 0.3-0.7c0-0.6-0.5-1.1-1.2-1.1-0.6 0-1.1 0.5-1.1 1.1 0 0.3 0.1 0.6 0.2 0.7 0.3 0.3 0.6 0.5 0.9 0.5z"/><path class="c" d="m264.8 326.9c0 0.7-4.1 0.7-4.1 0v-0.9c0.2-1.1 3.7-1.2 4.1 0z"/><path class="i" d="m289.3 326.4h-16.6c-0.7 0-1.3-0.5-1.3-1.3 0-0.7 0.6-1.3 1.3-1.3h16.6c0.7 0 1.3 0.6 1.3 1.3 0 0.8-0.6 1.3-1.3 1.3z"/><path class="i" d="m311.2 326.4h-16.6c-0.7 0-1.3-0.5-1.3-1.3 0-0.7 0.6-1.3 1.3-1.3h16.6c0.7 0 1.3 0.6 1.3 1.3 0 0.8-0.6 1.3-1.3 1.3z"/><path class="k" d="m304.2 358.2h-15.1c-2.1 0-3.8-1.7-3.8-3.8 0-2.2 1.7-3.9 3.8-3.9h15.1c2.1 0 3.9 1.7 3.9 3.9 0 2.1-1.8 3.8-3.9 3.8z"/><path class="l" d="m107.3 201q0.1-0.1 0.1-0.2c0 0.1-0.1 0.2-0.1 0.2z"/><path class="l" d="m107.3 201q0.1-0.1 0.1-0.2c0 0.1-0.1 0.2-0.1 0.2z"/><path class="l" d="m181.4 201.4c0 0 0-0.2 0-0.2q0 0 0 0.2z"/><path class="l" d="m181.4 201.4c0 0 0-0.2 0-0.2q0 0 0 0.2z"/><path class="h" d="m144.5 181.1c-8.6 9.2-22.4 16.8-37.1 20 0 1 0 6.4-0.2 31.5-0.1 33.5 31.8 49.9 36.8 52.5 4.7-2.3 37-18.6 37.2-52.1 0.1-25.1 0.1-30.6 0.1-31.6-14.7-3.3-28.3-11-36.8-20.3z"/><path class="m" d="m144.4 187.1c-8.4 7.8-20.1 13.8-33 17.1l-0.1 28.4c-0.1 13 5.1 24.8 15.3 35 6.7 6.7 13.8 10.8 17.4 12.7q0.2-0.1 0.5-0.2v-92.9q0-0.1-0.1-0.1z"/><path class="n" d="m144.5 187.2v92.9c3.7-2 10.5-6 17-12.4 10.3-10 15.6-21.8 15.6-34.7l0.2-28.4c-12.8-3.5-24.4-9.6-32.8-17.4z"/><path fill-rule="evenodd" class="h" d="m159.5 228.1v22c0 2.4-30 2.4-30 0v-22zm-11.2 8.3c0-2.1-1.7-3.7-3.7-3.7-2.1 0-3.7 1.6-3.7 3.7 0 1.5 0.9 2.8 2.2 3.4v6.2c0 0.8 0.6 1.5 1.5 1.5 0.8 0 1.5-0.7 1.5-1.5v-6.2c1.3-0.6 2.2-1.9 2.2-3.4z"/><path class="h" d="m156.8 226.5h-3v-1.5c0-5.1-4.2-9.3-9.3-9.3-5.1 0-9.3 4.2-9.3 9.3v1.5h-3v-1.5c0-6.8 5.5-12.3 12.3-12.3 6.8 0 12.3 5.5 12.3 12.3z"/><path class="m" d="m311.8 0h54.1v67.4h-54.1z"/><path class="o" d="m318.8 7h54.1v67.4h-54.1z"/><path class="o" d="m327.8 13.8h54v67.4h-54z"/><path class="c" d="m334.2 20.8h54v67.4h-54z"/><path class="j" d="m351.9 31.8h27.9v4.4h-27.9z"/><path class="j" d="m343.6 42.1h36.2v4.4h-36.2z"/><path class="j" d="m343.6 52.4h36.2v4.4h-36.2z"/><path class="j" d="m343.6 62.7h36.2v4.4h-36.2z"/><path class="j" d="m343.6 73.1h36.2v4.3h-36.2z"/><path class="h" d="m193.3 92.5c-10.5 0-19.1-8.6-19.1-19.1 0-10.6 8.6-19.1 19.1-19.1 10.6 0 19.1 8.5 19.1 19.1 0 10.5-8.5 19.1-19.1 19.1z"/><path fill-rule="evenodd" class="j" d="m227.1 93.8c-2.7 4.5-6.2 8.3-10.2 11.2l-2.6-3.4c-3.8 2.8-8 4.8-12.5 5.9l1 4.2c-4.9 1.2-10.1 1.5-15.2 0.7l0.1-0.9 0.5-3.3c-4.5-0.7-8.9-2.2-13-4.7l-2.2 3.7c-4.6-2.7-8.4-6.3-11.3-10.3l3.4-2.6c-2.8-3.7-4.8-8-5.9-12.5l-4.1 1.1c-1.3-5-1.6-10.2-0.8-15.3l1.3 0.2 3 0.5c0.6-4.5 2.2-8.9 4.6-13l-3.7-2.3c2.8-4.5 6.3-8.3 10.3-11.3l2.6 3.5c3.7-2.8 8-4.8 12.5-5.9l-1.1-4.2c5-1.2 10.2-1.5 15.3-0.7l-0.6 4.2c4.4 0.7 8.9 2.2 13 4.7l2.2-3.7c4.6 2.7 8.4 6.3 11.3 10.3l-3.5 2.5c2.9 3.8 4.8 8.1 6 12.5l4.1-1c1.3 4.9 1.5 10.1 0.8 15.3h-0.1l-2.8-0.5-1.4-0.2c-0.6 4.5-2.2 8.9-4.7 13zm-17.4-10.5c5.4-9 2.5-20.7-6.5-26.2-9-5.4-20.8-2.5-26.2 6.5-5.4 9-2.5 20.8 6.5 26.2 9 5.4 20.7 2.5 26.2-6.5z"/><path fill-rule="evenodd" class="k" d="m153.9 87.8c1.5 2.3 2.6 4.8 3.1 7.4l-2.3 0.4c0.5 2.4 0.5 4.9 0 7.3l2.3 0.4c-0.6 2.7-1.6 5.2-3.1 7.5l-0.5-0.3-1.4-1c-1.3 2-3.1 3.8-5.2 5.1l1.3 1.9c-2.4 1.6-4.9 2.6-7.5 3.1l-0.4-2.2c-2.4 0.5-4.9 0.4-7.3-0.1l-0.4 2.3c-2.7-0.6-5.2-1.6-7.5-3.1l0.4-0.6 0.9-1.3c-2-1.3-3.8-3.1-5.1-5.2l-1.9 1.3c-1.6-2.4-2.6-4.9-3.1-7.5l2.2-0.4c-0.5-2.4-0.4-4.9 0.1-7.3l-2.3-0.4c0.6-2.7 1.6-5.2 3.1-7.5l1.9 1.3c1.3-2 3.1-3.7 5.2-5.1l-1.3-1.9c2.4-1.6 4.9-2.6 7.5-3.1l0.4 2.3c2.4-0.5 4.9-0.5 7.3 0l0.4-2.2c2.7 0.5 5.2 1.5 7.5 3.1l-0.9 1.2-0.4 0.6c2 1.4 3.7 3.1 5.1 5.2zm-8.9 5.9c-3.1-4.6-9.3-5.9-13.9-2.8-4.7 3.1-5.9 9.3-2.9 13.9 3.1 4.6 9.3 5.9 13.9 2.9 4.7-3.1 5.9-9.3 2.9-14z"/><path class="j" d="m415.9 104.1c0-3.4 2.8-6.2 6.2-6.2h37.6c3.4 0 6.2 2.8 6.2 6.2v17.5c0 3.4-2.8 6.2-6.2 6.2h-37.6c-3.4 0-6.2-2.8-6.2-6.2z"/><path class="c" d="m415.9 103.6h50v5.1h-50z"/><path class="p" d="m427.4 122.1h-7.4c-0.5 0-0.8 0.3-0.8 0.8 0 0.5 0.3 0.8 0.8 0.8h7.4c0.4 0 0.8-0.3 0.8-0.8 0-0.5-0.4-0.8-0.8-0.8z"/><path class="p" d="m438.7 122.1h-7.4c-0.5 0-0.8 0.3-0.8 0.8 0 0.5 0.3 0.8 0.8 0.8h7.4c0.4 0 0.8-0.3 0.8-0.8 0-0.5-0.4-0.8-0.8-0.8z"/><path class="p" d="m449.9 122.1h-7.3c-0.5 0-0.8 0.3-0.8 0.8 0 0.5 0.3 0.8 0.8 0.8h7.3c0.5 0 0.9-0.3 0.9-0.8 0-0.5-0.4-0.8-0.9-0.8z"/><path class="p" d="m461.2 122.1h-7.3c-0.5 0-0.8 0.3-0.8 0.8 0 0.5 0.3 0.8 0.8 0.8h7.3c0.5 0 0.9-0.3 0.9-0.8 0-0.5-0.4-0.8-0.9-0.8z"/><path class="p" d="m419.7 99.4c-0.5 0-0.9 0.5-0.9 1v0.3c0 0.5 0.4 0.9 0.9 0.9 0.5 0 0.9-0.4 0.9-0.9v-0.3c0-0.5-0.4-1-0.9-1z"/><path class="p" d="m421.7 100.5c0 0.6 0.5 1.1 1.1 1.1h3.9c0.6 0 1.1-0.5 1.1-1.1 0-0.6-0.5-1.1-1.1-1.1h-3.9c-0.6 0-1.1 0.5-1.1 1.1z"/><path class="c" d="m419.7 115.1c0-2 1.6-3.6 3.6-3.6h0.7c2 0 3.7 1.6 3.7 3.6 0 2-1.7 3.6-3.7 3.6h-0.7c-2 0-3.6-1.6-3.6-3.6z"/><path class="k" d="m445.7 203.8v-3.4c0-1.5-1.3-2.8-2.8-2.8h-29.9c-1.5 0-2.7 1.3-2.7 2.8v60.3h77.2v-56.9z"/><path class="h" d="m490.7 205.9h-75.8l-4.6 54.8h76.8z"/><path class="q" d="m487.5 260.7h-77.2l8.1-54.1c0.3-1.6 1.6-2.8 3.2-2.8h70.7c2 0 3.5 1.8 3.2 3.7z"/><path class="j" d="m495.6 223.6c-9.8 0-17.7-7.9-17.7-17.7 0-9.8 7.9-17.7 17.7-17.7 9.7 0 17.6 7.9 17.6 17.7 0 9.8-7.9 17.7-17.6 17.7z"/><path fill-rule="evenodd" class="h" d="m495.6 224.2c-10.2 0-18.4-8.2-18.4-18.3 0-10.1 8.2-18.3 18.4-18.3 10.1 0 18.3 8.2 18.3 18.3 0 10.1-8.2 18.3-18.3 18.3zm17-18.3c0-9.4-7.6-17-17-17-9.5 0-17.1 7.6-17.1 17 0 9.4 7.6 17 17.1 17 9.4 0 17-7.6 17-17z"/><path fill-rule="evenodd" class="h" d="m504.1 202.7v12.5c0 1.4-17.1 1.4-17.1 0v-12.5zm-6.4 4.7c0-1.1-0.9-2.1-2.1-2.1-1.1 0-2.1 1-2.1 2.1 0 0.9 0.5 1.6 1.3 1.9v3.6c0 0.5 0.3 0.9 0.8 0.9 0.5 0 0.9-0.4 0.9-0.9v-3.5c0.7-0.4 1.2-1.1 1.2-2z"/><path class="h" d="m502.6 201.8h-1.7v-0.8c0-3-2.4-5.4-5.3-5.4-3 0-5.4 2.4-5.4 5.4v0.8h-1.7v-0.8c0-3.9 3.2-7.1 7.1-7.1 3.8 0 7 3.2 7 7.1z"/><path class="a" d="m434.1 64.6c-3.7 0-6.7-3-6.7-6.8 0-3.7 3-6.7 6.7-6.7 3.8 0 6.8 3 6.8 6.7 0 3.8-3 6.8-6.8 6.8z"/><path class="a" d="m256.3 89.9c-3.8 0-6.8-3-6.8-6.8 0-3.7 3-6.8 6.8-6.8 3.7 0 6.7 3.1 6.7 6.8 0 3.8-3 6.8-6.7 6.8z"/><path class="h" d="m481.6 176.8c-2 0-3.5-1.6-3.5-3.5 0-2 1.5-3.5 3.5-3.5 2 0 3.6 1.5 3.6 3.5 0 1.9-1.6 3.5-3.6 3.5z"/><path class="a" d="m110.8 183.5c-2 0-3.6-1.6-3.6-3.6 0-1.9 1.6-3.5 3.6-3.5 2 0 3.5 1.6 3.5 3.5 0 2-1.5 3.6-3.5 3.6z"/><path class="a" d="m166.2 315.8c-3.7 0-6.7-3-6.7-6.7 0-3.8 3-6.8 6.7-6.8 3.8 0 6.8 3 6.8 6.8 0 3.7-3 6.7-6.8 6.7z"/><path class="a" d="m274.9 15.9c-0.6 0-1.2-0.5-1.2-1.2v-12.6c0-0.6 0.6-1.1 1.2-1.1 0.6 0 1.2 0.5 1.2 1.1v12.6c0 0.7-0.6 1.2-1.2 1.2z"/><path class="a" d="m267.5 8.4c0-0.6 0.5-1.2 1.1-1.2h12.6c0.6 0 1.2 0.6 1.2 1.2 0 0.7-0.6 1.2-1.2 1.2h-12.6c-0.6 0-1.1-0.5-1.1-1.2z"/><path class="h" d="m408.5 177.2c-0.7 0-1.2-0.5-1.2-1.2v-12.5c0-0.7 0.5-1.2 1.2-1.2 0.6 0 1.1 0.5 1.1 1.2v12.5c0 0.7-0.5 1.2-1.1 1.2z"/><path class="h" d="m401 169.8c0-0.7 0.5-1.2 1.2-1.2h12.5c0.7 0 1.2 0.5 1.2 1.2 0 0.6-0.5 1.1-1.2 1.1h-12.5c-0.7 0-1.2-0.5-1.2-1.1z"/><path class="h" d="m395.7 342.7c-0.7 0-1.2-0.5-1.2-1.2v-12.6c0-0.6 0.5-1.1 1.2-1.1 0.7 0 1.2 0.5 1.2 1.1v12.6c0 0.7-0.5 1.2-1.2 1.2z"/><path class="h" d="m388.2 335.2c0-0.6 0.6-1.1 1.2-1.1h12.6c0.6 0 1.2 0.5 1.2 1.1 0 0.7-0.6 1.2-1.2 1.2h-12.6c-0.6 0-1.2-0.5-1.2-1.2z"/><path fill-rule="evenodd" class="r" d="m291.1 252.7c-2.1 0-3.7-1.7-3.7-3.8 0-2.1 1.6-3.7 3.7-3.7 2.1 0 3.8 1.6 3.8 3.7 0 2.1-1.7 3.8-3.8 3.8z"/><path class="d" d="m383.5 593h-14.7l-1.6-32h17.8z"/><path class="d" d="m638.9 593h-14.6l-1.6-32h17.8z"/><path class="s" d="m626.1 505.6c-1.6 5-3.4 10.2-5.3 15.5h-244c0 0-31.5-128.2 0-151.7q1.2-0.9 2.9-1.7c42.4-21.8 212.4-26.9 247 1.1q0.4 0.3 0.7 0.6c12.8 11.7 23.8 58.3-1.3 136.2z"/><path class="t" d="m468.8 521.1h-92l9-89.9c16 7 58.7 43.7 83 89.9z"/><path class="t" d="m626.1 505.6c-1.6 5-3.4 10.2-5.3 15.5h-88.6c15.2-28.3 52.2-71.1 88.1-90.9z"/><path class="s" d="m656.7 430h-33.8c-5.7 0-10.5 4.2-11.3 9.8l-10.8 81.6h-197.7l-10.8-81.6c-0.7-5.6-5.5-9.8-11.2-9.8h-33.9c-7 0-12.4 6.4-11.1 13.3l18.7 135.9h18.6 275.1 0.6l18.8-135.9c1.2-6.9-4.1-13.3-11.2-13.3z"/><path class="u" d="m598.9 476.8c15.9 5.4 12.8 39.1 0 44.3h-193.2c-14.4-3.8-15.6-48.4 5.2-45 127.3 23.9 133.5-14.3 188 0.7z"/><path class="v" d="m451.7 442.7c-0.1 8.7 0.4 16.8 1.3 24h90.6l5.3-88.4c-5.4-32.3-20.1-40.1-43.4-40.1-20.9 0-34.8 17-43.2 39.8-7.3 19.7-10.5 43.6-10.6 64.7z"/><path class="w" d="m451.7 444.4l32.7-2c-18.2-6-19.6-33.9-1.1-51.2l-21-13.2c-7.3 19.7-10.5 45.3-10.6 66.4z"/><path class="d" d="m445.4 485h124.5v-42.3h-112.1z"/><path class="d" d="m585.8 471.6l-33.5 121.4h-26.1c8.3-51.7 6.5-85.2 14.2-128.2 6.8-35.2 53.4-25.9 45.4 6.8z"/><path class="x" d="m543 593q0-0.1-0.1-0.2c0-9 7.4-16.3 16.4-16.3 9 0 16.3 7.3 16.3 16.3q0 0.1 0 0.2z"/><path class="x" d="m562.4 576.8l-5.9-1.8c-3.9-7.7-20.6-6.8-18.3 2.6-6.5 1-10-2.3-10-2.3l-2 17.7h35.4z"/><path class="d" d="m439 471.6l33.4 121.4h26.1c-8.3-51.7-6.4-85.2-14.2-128.2-6.8-35.2-53.4-25.9-45.3 6.8z"/><path class="x" d="m481.8 593q0-0.1 0-0.2c0-9-7.3-16.3-16.3-16.3-9 0-16.3 7.3-16.3 16.3q0 0.1 0 0.2z"/><path class="x" d="m462.3 576.8l5.9-1.8c4-7.7 20.7-6.8 18.3 2.6 6.6 1 10-2.3 10-2.3l2 17.7h-35.4z"/><path class="v" d="m491.5 341c12.3 7.4 14 29.5 7.7 38.2l-34.8 26 35.5 18.3-5.8 18.9c0 0-37-3-55.2-21.6-17.4-17.9 25.1-70.4 52.6-79.8z"/><path class="v" d="m516.3 374.4c-10.4-13.1-3.2-33.4 10.1-32.8 43.5 15.3 56.9 57.7 43.1 76.8-11.8 16.3-63.6 22.6-63.6 22.6v-17.9l36-7.8c0 0-18.6-28.7-25.6-40.9z"/><path class="y" d="m478.3 436.4c-0.7-6 2.8-13.4 11.9-15.1 15.7-2.8 21.4 5.8 22.8 12 0.4 1.6-1 3.3-2.4 3.1-1.3-0.1-2.3-0.9-2.5-2.1-0.3-1.5-1.1-3.3-2.8-4.3 1.7 3.2 1 6.4-3.4 6.4z"/><path class="z" d="m513.8 436.4l12.4-62h2.6c-0.8 4.2-13 66.3-13.4 68.3-3.2 0-33 0-37.1 0l-4-6.3z"/><path class="h" d="m528.8 374.4h92.1l-13.6 68.3h-91.9z"/><path class="y" d="m502 345.5c0 7 21.1 11.7 28 4.3 1.1-1.1 1.8-2.5 2.1-4.2l4-17.9-25.3-9.5-0.7 2.3z"/><path class="A" d="m532.1 345.6l4-17.9-23.9-6.4c-6.2 18.4 15.9 33.1 19.9 24.3z"/><path class="y" d="m508.9 311.3c-1.3 17.6 12.6 33.1 24.2 33.9 11.7 0.8 27.8-12.3 29.1-29.9 1.3-17.5-9.5-32.7-24.2-33.8-14.7-1.1-27.7 12.2-29.1 29.8z"/><path class="d" d="m528.4 282.8c16.1-10.2 25-0.6 33 9.6 5.7 7.2 9.6 12.3 16.7 13.3-13.5 17.1-40.5 5.8-49-11.2-0.8 9.7-12.3 17.8-20.2 16.8-2.5-10.8 4.9-32.6 19.5-28.5z"/><path class="y" d="m512 318.6c-3.9 0-7-3.2-7-7.1 0-3.8 3.1-7 7-7 3.9 0 7 3.2 7 7 0 3.9-3.1 7.1-7 7.1z"/></svg>